<?xml version="1.0" standalone="no"?>
<!DOCTYPE svg PUBLIC "-//W3C//DTD SVG 20010904//EN"
 "http://www.w3.org/TR/2001/REC-SVG-20010904/DTD/svg10.dtd">
<svg version="1.0" xmlns="http://www.w3.org/2000/svg"
 width="512.000000pt" height="512.000000pt" viewBox="0 0 512.000000 512.000000"
 preserveAspectRatio="xMidYMid meet">
<metadata>
Created by potrace 1.14, written by Peter Selinger 2001-2017
</metadata>
<g transform="translate(0.000000,512.000000) scale(0.100000,-0.100000)"
fill="#000000" stroke="none">
<path d="M2667 4764 c-1 -1 -72 -5 -157 -9 -85 -3 -175 -8 -200 -10 -25 -2
-83 -6 -130 -10 -121 -9 -188 -15 -240 -20 -25 -2 -88 -7 -140 -10 -52 -4
-107 -8 -122 -10 -15 -2 -76 -7 -135 -10 -60 -4 -115 -8 -123 -10 -8 -1 -33
-6 -56 -9 -49 -9 -105 -52 -131 -103 -16 -30 -581 -1718 -672 -2006 -27 -88
-55 -130 -164 -254 -155 -177 -190 -245 -189 -378 0 -44 5 -93 12 -110 25 -67
102 -121 230 -164 94 -31 170 -72 194 -104 29 -39 28 -125 -2 -190 -12 -27
-70 -124 -130 -215 -127 -196 -146 -236 -146 -307 1 -109 96 -195 210 -190 71
4 139 34 310 136 251 151 318 180 399 173 109 -10 143 -60 250 -374 109 -320
162 -380 333 -381 65 -1 145 23 232 69 101 52 212 139 381 298 329 309 476
401 654 408 198 8 355 -56 693 -283 189 -126 289 -172 386 -176 74 -2 118 15
168 69 44 46 63 113 54 189 -7 67 -8 70 -51 212 -67 224 -75 286 -44 346 38
75 85 102 303 176 243 82 289 127 261 251 -13 54 -53 103 -137 165 -42 31
-172 92 -228 107 l-38 10 18 58 c9 31 97 298 195 592 100 299 180 557 183 585
10 120 -22 161 -289 365 -97 74 -1108 866 -1174 919 -128 104 -245 172 -319
187 -27 5 -444 22 -449 18z m305 -267 c199 -40 329 -119 788 -480 8 -7 47 -36
85 -66 121 -94 297 -246 369 -317 114 -114 144 -174 103 -212 -38 -34 -131
-56 -277 -67 -30 -2 -107 -7 -170 -12 -175 -12 -583 -10 -675 5 -125 20 -136
22 -214 43 -152 41 -231 89 -437 264 -39 33 -94 80 -124 105 -29 25 -58 50
-64 55 -6 6 -81 68 -166 140 -85 71 -157 132 -160 135 -3 3 -41 35 -85 72
-129 106 -202 190 -201 228 2 27 65 58 153 74 134 24 160 26 493 42 74 4 136
7 137 8 12 10 383 -5 445 -17z m-1479 -281 c83 -43 193 -126 347 -262 19 -18
94 -82 165 -144 372 -320 534 -490 605 -630 12 -25 27 -53 31 -63 20 -38 35
-146 33 -222 -3 -97 -30 -219 -83 -381 -48 -147 -221 -616 -232 -628 -4 -4
-30 -9 -58 -11 l-50 -3 15 37 c61 140 110 296 138 446 9 44 19 94 22 110 4 17
8 113 9 215 4 200 -11 319 -55 451 -44 131 -121 240 -190 269 -26 11 -33 9
-77 -20 -53 -35 -95 -87 -167 -202 -55 -90 -111 -142 -168 -156 -38 -10 -230
-8 -246 2 -9 5 -122 18 -182 20 -55 3 -133 -14 -180 -39 -133 -69 -231 -246
-225 -406 5 -105 62 -225 167 -351 22 -27 38 -48 36 -48 -2 0 -58 24 -123 54
-135 61 -163 88 -191 185 -16 52 -15 146 1 223 5 25 238 733 252 768 3 8 7 17
7 20 9 34 234 697 249 730 21 47 42 69 67 70 9 0 46 -15 83 -34z m2847 -1107
c135 -22 176 -71 167 -198 -10 -137 -42 -255 -185 -686 l-47 -140 -50 4 c-27
1 -51 4 -52 5 -1 1 16 57 38 124 111 341 114 487 12 620 -37 49 -92 71 -150
61 -102 -19 -166 -99 -217 -269 -41 -139 -96 -237 -194 -345 -89 -100 -307
-206 -565 -274 -88 -24 -344 -77 -412 -86 -27 -4 -54 -10 -59 -13 -6 -3 -6 3
-2 14 4 10 19 51 32 89 14 39 29 79 34 90 5 11 66 172 135 359 69 186 137 361
151 388 34 68 89 125 148 155 52 27 191 58 297 68 35 3 80 7 99 10 19 2 73 7
120 10 47 4 103 8 125 10 22 2 99 7 170 10 72 4 131 8 132 8 6 6 220 -5 273
-14z"/>
<path d="M3075 4122 c-280 -31 -437 -280 -303 -479 79 -118 226 -181 463 -199
44 -3 96 -7 115 -9 50 -6 369 -5 410 0 19 3 51 7 70 9 64 7 175 38 203 58 84
59 61 138 -73 250 -51 43 -157 118 -166 118 -3 0 -23 12 -45 26 -22 14 -97 54
-167 88 -168 84 -263 117 -382 132 -78 10 -91 10 -125 6z"/>
<path d="M3325 2949 c-194 -16 -287 -109 -285 -284 1 -77 4 -95 28 -170 27
-82 62 -136 115 -179 37 -29 43 -31 125 -30 76 0 95 4 152 32 118 57 224 165
280 283 93 199 3 313 -270 345 -30 3 -57 7 -60 8 -3 1 -41 -1 -85 -5z"/>
<path d="M3019 814 c-42 -22 -59 -49 -68 -102 -12 -79 36 -209 101 -269 76
-71 251 -105 341 -65 59 26 82 62 82 127 -1 117 -120 250 -275 308 -54 20
-144 21 -181 1z"/>
</g>
</svg>
