<?xml version="1.0" encoding="UTF-8" standalone="no"?>
<!DOCTYPE svg PUBLIC "-//W3C//DTD SVG 1.1//EN" "http://www.w3.org/Graphics/SVG/1.1/DTD/svg11.dtd">
<svg width="100%" height="100%" viewBox="0 0 4267 4267" version="1.1" xmlns="http://www.w3.org/2000/svg" xmlns:xlink="http://www.w3.org/1999/xlink" xml:space="preserve" xmlns:serif="http://www.serif.com/" style="fill-rule:evenodd;clip-rule:evenodd;stroke-linecap:round;stroke-linejoin:round;stroke-miterlimit:1.5;">
    <g transform="matrix(0.974688,0,0,0.974688,54,54)">
        <path d="M0,0L0,1029.88L1029.88,1029.88L1029.88,0L0,0ZM1324.14,0L1324.14,147.126L1177.01,147.126L1177.01,588.506L1324.14,588.506L1324.14,735.632L1471.26,735.632L1471.26,1029.88L1618.39,1029.88L1618.39,1177.01L1765.52,1177.01L1765.52,1471.26L1912.64,1471.26L1912.64,1618.39L1765.52,1618.39L1765.52,1912.64L1471.26,1912.64L1471.26,1765.52L1618.39,1765.52L1618.39,1177.01L1471.26,1177.01L1471.26,1029.88L1324.14,1029.88L1324.14,882.759L1177.01,882.759L1177.01,1324.14L1029.88,1324.14L1029.88,1177.01L882.759,1177.01L882.759,1324.14L1029.88,1324.14L1029.88,1471.26L1471.26,1471.26L1471.26,1618.39L1324.14,1618.39L1324.14,1912.64L1471.26,1912.64L1471.26,2206.9L1618.39,2206.9L1618.39,2501.15L1471.26,2501.15L1471.26,2354.02L1177.01,2354.02L1177.01,2501.15L1471.26,2501.15L1471.26,2648.28L882.759,2648.28L882.759,2795.4L1177.01,2795.4L1177.01,3236.78L1324.14,3236.78L1324.14,2942.53L1471.26,2942.53L1471.26,3089.66L1618.39,3089.66L1618.39,3236.78L1912.64,3236.78L1912.64,3089.66L1618.39,3089.66L1618.39,2648.28L2206.9,2648.28L2206.9,2795.4L2354.02,2795.4L2354.02,2942.53L2501.15,2942.53L2501.15,3089.66L2648.28,3089.66L2648.28,2942.53L2501.15,2942.53L2501.15,2795.4L2354.02,2795.4L2354.02,2648.28L2501.15,2648.28L2501.15,2501.15L2648.28,2501.15L2648.28,2942.53L2795.4,2942.53L2795.4,2795.4L2942.53,2795.4L2942.53,3089.66L2795.4,3089.66L2795.4,3236.78L2354.02,3236.78L2354.02,2942.53L2059.77,2942.53L2059.77,2795.4L1765.52,2795.4L1765.52,2942.53L2059.77,2942.53L2059.77,3236.78L2206.9,3236.78L2206.9,3383.91L2059.77,3383.91L2059.77,3531.03L1912.64,3531.03L1912.64,3383.91L1765.52,3383.91L1765.52,3678.16L1618.39,3678.16L1618.39,3383.91L1471.26,3383.91L1471.26,3678.16L1324.14,3678.16L1324.14,4119.54L1177.01,4119.54L1177.01,4266.67L1618.39,4266.67L1618.39,4119.54L1471.26,4119.54L1471.26,3972.41L1912.64,3972.41L1912.64,4119.54L2059.77,4119.54L2059.77,3825.29L1912.64,3825.29L1912.64,3678.16L2059.77,3678.16L2059.77,3825.29L2206.9,3825.29L2206.9,3972.41L2354.02,3972.41L2354.02,4119.54L2501.15,4119.54L2501.15,4266.67L2648.28,4266.67L2648.28,4119.54L2501.15,4119.54L2501.15,3531.03L2354.02,3531.03L2354.02,3383.91L2648.28,3383.91L2648.28,3531.03L2795.4,3531.03L2795.4,3678.16L3089.66,3678.16L3089.66,3825.29L3236.78,3825.29L3236.78,3972.41L3089.66,3972.41L3089.66,3825.29L2942.53,3825.29L2942.53,3972.41L3089.66,3972.41L3089.66,4266.67L3236.78,4266.67L3236.78,4119.54L3383.91,4119.54L3383.91,4266.67L3678.16,4266.67L3678.16,4119.54L3531.03,4119.54L3531.03,3972.41L3383.91,3972.41L3383.91,3825.29L3236.78,3825.29L3236.78,3678.16L3383.91,3678.16L3383.91,3825.29L3531.03,3825.29L3531.03,3972.41L3678.16,3972.41L3678.16,4119.54L3825.29,4119.54L3825.29,4266.67L3972.41,4266.67L3972.41,3972.41L4119.54,3972.41L4119.54,4119.54L4266.67,4119.54L4266.67,3972.41L4119.54,3972.41L4119.54,3825.29L3972.41,3825.29L3972.41,3678.16L3825.29,3678.16L3825.29,3531.03L3678.16,3531.03L3678.16,3383.91L3972.41,3383.91L3972.41,3236.78L3825.29,3236.78L3825.29,3089.66L3678.16,3089.66L3678.16,2795.4L3531.03,2795.4L3531.03,2942.53L3236.78,2942.53L3236.78,2648.28L3089.66,2648.28L3089.66,2501.15L2648.28,2501.15L2648.28,2354.02L2501.15,2354.02L2501.15,2206.9L2354.02,2206.9L2354.02,1912.64L2206.9,1912.64L2206.9,2501.15L1912.64,2501.15L1912.64,2354.02L1765.52,2354.02L1765.52,2206.9L1618.39,2206.9L1618.39,2059.77L1912.64,2059.77L1912.64,1912.64L2059.77,1912.64L2059.77,1618.39L2206.9,1618.39L2206.9,1765.52L2354.02,1765.52L2354.02,1912.64L2501.15,1912.64L2501.15,1618.39L2795.4,1618.39L2795.4,1765.52L2942.53,1765.52L2942.53,1912.64L3089.66,1912.64L3089.66,1618.39L2795.4,1618.39L2795.4,1471.26L2942.53,1471.26L2942.53,1177.01L2795.4,1177.01L2795.4,1324.14L2648.28,1324.14L2648.28,1177.01L2501.15,1177.01L2501.15,882.759L2354.02,882.759L2354.02,735.632L2648.28,735.632L2648.28,1029.88L2795.4,1029.88L2795.4,735.632L2942.53,735.632L2942.53,1029.88L3089.66,1029.88L3089.66,0L2942.53,0L2942.53,294.253L2795.4,294.253L2795.4,588.506L2648.28,588.506L2648.28,441.379L2354.02,441.379L2354.02,294.253L2206.9,294.253L2206.9,147.126L1912.64,147.126L1912.64,0L1324.14,0ZM2206.9,0L2206.9,147.126L2354.02,147.126L2354.02,294.253L2648.28,294.253L2648.28,147.126L2501.15,147.126L2501.15,0L2206.9,0ZM2648.28,0L2648.28,147.126L2795.4,147.126L2795.4,0L2648.28,0ZM3236.78,0L3236.78,1029.88L4266.67,1029.88L4266.67,0L3236.78,0ZM882.759,147.126L882.759,882.759L147.126,882.759L147.126,147.126L882.759,147.126ZM1618.39,147.126L1618.39,294.253L1912.64,294.253L1912.64,441.379L2059.77,441.379L2059.77,294.253L2206.9,294.253L2206.9,441.379L2354.02,441.379L2354.02,588.506L2206.9,588.506L2206.9,882.759L2354.02,882.759L2354.02,1029.88L2206.9,1029.88L2206.9,882.759L2059.77,882.759L2059.77,1177.01L2501.15,1177.01L2501.15,1324.14L2648.28,1324.14L2648.28,1471.26L2501.15,1471.26L2501.15,1324.14L2354.02,1324.14L2354.02,1471.26L2059.77,1471.26L2059.77,1324.14L1912.64,1324.14L1912.64,882.759L1765.52,882.759L1765.52,1029.88L1618.39,1029.88L1618.39,735.632L1912.64,735.632L1912.64,588.506L1618.39,588.506L1618.39,441.379L1471.26,441.379L1471.26,588.506L1324.14,588.506L1324.14,294.253L1471.26,294.253L1471.26,147.126L1618.39,147.126ZM4119.54,147.126L4119.54,882.759L3383.91,882.759L3383.91,147.126L4119.54,147.126ZM294.253,294.253L294.253,735.632L735.632,735.632L735.632,294.253L294.253,294.253ZM3531.03,294.253L3531.03,735.632L3972.41,735.632L3972.41,294.253L3531.03,294.253ZM0,1177.01L0,1471.26L147.126,1471.26L147.126,1177.01L0,1177.01ZM3089.66,1177.01L3089.66,1324.14L3383.91,1324.14L3383.91,1177.01L3089.66,1177.01ZM3678.16,1177.01L3678.16,1324.14L3825.29,1324.14L3825.29,1471.26L4119.54,1471.26L4119.54,1177.01L3678.16,1177.01ZM294.253,1324.14L294.253,1471.26L441.379,1471.26L441.379,1618.39L588.506,1618.39L588.506,1765.52L0,1765.52L0,3089.66L147.126,3089.66L147.126,2795.4L441.379,2795.4L441.379,2648.28L588.506,2648.28L588.506,2501.15L294.253,2501.15L294.253,2354.02L147.126,2354.02L147.126,2206.9L294.253,2206.9L294.253,2354.02L588.506,2354.02L588.506,2501.15L1029.88,2501.15L1029.88,2354.02L588.506,2354.02L588.506,2206.9L735.632,2206.9L735.632,2059.77L441.379,2059.77L441.379,1912.64L735.632,1912.64L735.632,2059.77L882.759,2059.77L882.759,2206.9L1177.01,2206.9L1177.01,2059.77L1324.14,2059.77L1324.14,1912.64L1029.88,1912.64L1029.88,1765.52L735.632,1765.52L735.632,1618.39L1029.88,1618.39L1029.88,1471.26L588.506,1471.26L588.506,1324.14L294.253,1324.14ZM1324.14,1324.14L1324.14,1177.01L1471.26,1177.01L1471.26,1324.14L1324.14,1324.14ZM3531.03,1324.14L3531.03,1471.26L3678.16,1471.26L3678.16,1324.14L3531.03,1324.14ZM3236.78,1471.26L3236.78,2059.77L3678.16,2059.77L3678.16,2206.9L3825.29,2206.9L3825.29,2354.02L3678.16,2354.02L3678.16,2206.9L3531.03,2206.9L3531.03,2354.02L3678.16,2354.02L3678.16,2501.15L3825.29,2501.15L3825.29,2648.28L4119.54,2648.28L4119.54,2795.4L4266.67,2795.4L4266.67,2501.15L3972.41,2501.15L3972.41,2059.77L3678.16,2059.77L3678.16,1912.64L3383.91,1912.64L3383.91,1471.26L3236.78,1471.26ZM3678.16,1618.39L3678.16,1765.52L3825.29,1765.52L3825.29,1618.39L3678.16,1618.39ZM4119.54,1765.52L4119.54,1912.64L3972.41,1912.64L3972.41,2059.77L4266.67,2059.77L4266.67,1765.52L4119.54,1765.52ZM2648.28,1912.64L2648.28,2059.77L2942.53,2059.77L2942.53,1912.64L2648.28,1912.64ZM1029.88,2059.77L882.759,2059.77L882.759,1912.64L1029.88,1912.64L1029.88,2059.77ZM441.379,2206.9L294.253,2206.9L294.253,2059.77L441.379,2059.77L441.379,2206.9ZM2795.4,2206.9L2795.4,2354.02L3236.78,2354.02L3236.78,2206.9L2795.4,2206.9ZM4119.54,2206.9L4119.54,2354.02L4266.67,2354.02L4266.67,2206.9L4119.54,2206.9ZM3383.91,2354.02L3383.91,2501.15L3236.78,2501.15L3236.78,2648.28L3678.16,2648.28L3678.16,2795.4L3825.29,2795.4L3825.29,2648.28L3678.16,2648.28L3678.16,2501.15L3531.03,2501.15L3531.03,2354.02L3383.91,2354.02ZM147.126,2648.28L147.126,2501.15L294.253,2501.15L294.253,2648.28L147.126,2648.28ZM588.506,2795.4L588.506,2942.53L735.632,2942.53L735.632,3089.66L1029.88,3089.66L1029.88,2942.53L882.759,2942.53L882.759,2795.4L588.506,2795.4ZM3089.66,2795.4L2942.53,2795.4L2942.53,2648.28L3089.66,2648.28L3089.66,2795.4ZM441.379,2942.53L441.379,3089.66L588.506,3089.66L588.506,2942.53L441.379,2942.53ZM3825.29,2942.53L3825.29,3089.66L4266.67,3089.66L4266.67,2942.53L3825.29,2942.53ZM3531.03,3089.66L3531.03,3531.03L3089.66,3531.03L3089.66,3089.66L3531.03,3089.66ZM0,3236.78L0,4266.67L1029.88,4266.67L1029.88,3236.78L0,3236.78ZM3236.78,3236.78L3236.78,3383.91L3383.91,3383.91L3383.91,3236.78L3236.78,3236.78ZM882.759,3383.91L882.759,4119.54L147.126,4119.54L147.126,3383.91L882.759,3383.91ZM4119.54,3383.91L4119.54,3531.03L3972.41,3531.03L3972.41,3678.16L4119.54,3678.16L4119.54,3825.29L4266.67,3825.29L4266.67,3383.91L4119.54,3383.91ZM294.253,3531.03L294.253,3972.41L735.632,3972.41L735.632,3531.03L294.253,3531.03ZM2206.9,3678.16L2206.9,3531.03L2354.02,3531.03L2354.02,3678.16L2206.9,3678.16ZM2648.28,3678.16L2648.28,3825.29L2795.4,3825.29L2795.4,3678.16L2648.28,3678.16ZM3678.16,3678.16L3678.16,3825.29L3531.03,3825.29L3531.03,3678.16L3678.16,3678.16ZM2206.9,4119.54L2206.9,4266.67L2354.02,4266.67L2354.02,4119.54L2206.9,4119.54ZM2795.4,4119.54L2795.4,4266.67L2942.53,4266.67L2942.53,4119.54L2795.4,4119.54Z" style="stroke:white;stroke-width:1.03px;"/>
    </g>
</svg>
